<svg width="56" height="56" viewBox="0 0 56 56" fill="none" xmlns="http://www.w3.org/2000/svg">
<path fill-rule="evenodd" clip-rule="evenodd" d="M37.8099 13.1705H53.8577C54.3955 13.1852 54.826 13.6217 54.8332 14.1597V40.5534C54.8257 41.102 54.3788 41.5427 53.8302 41.5426H51.0823L50.8075 43.37C50.8005 43.5264 50.6753 43.6516 50.519 43.6585H47.2352C47.0735 43.6587 46.9403 43.5316 46.9329 43.37L46.6169 41.5426H9.41023L9.1217 43.37C9.1217 43.5294 8.99252 43.6585 8.83317 43.6585H5.5769C5.41755 43.6585 5.28837 43.5294 5.28837 43.37L4.90366 41.5426H2.15575C1.60941 41.5426 1.1665 41.0997 1.1665 40.5534V14.1597C1.1665 13.6134 1.60941 13.1705 2.15575 13.1705H18.231V12.6484C18.231 12.4435 18.3971 12.2774 18.602 12.2774H21.3499C21.4574 12.2613 21.5666 12.2932 21.6485 12.3645C21.7305 12.4359 21.777 12.5397 21.7758 12.6484V13.1705H23.5894V12.6484C23.5894 12.4435 23.7555 12.2774 23.9604 12.2774H26.7083C26.9132 12.2774 27.0793 12.4435 27.0793 12.6484V13.1705H28.9753V12.6484C28.9752 12.4488 29.1331 12.2848 29.3326 12.2774H32.0805C32.28 12.2848 32.4378 12.4488 32.4377 12.6484V13.1705H34.32V12.6484C34.32 12.4435 34.4861 12.2774 34.691 12.2774H37.4389C37.5373 12.2774 37.6316 12.3165 37.7012 12.3861C37.7708 12.4556 37.8099 12.55 37.8099 12.6484V13.1705ZM2.33439 40.3747H53.6928V14.3382H2.33439V40.3747Z" fill="black"/>
<path fill-rule="evenodd" clip-rule="evenodd" d="M17.53 28.8611C18.9782 29.3526 19.7198 27.763 20.2268 26.676L20.278 26.5666C20.2009 27.3127 20.049 28.0492 19.8246 28.7649C19.8246 28.9298 20.0856 28.9847 20.168 28.9023C20.6318 28.3612 21.0286 27.7661 21.3496 27.1299C21.2739 27.5328 21.2462 27.9433 21.2672 28.3527C21.277 28.6201 21.4615 28.8493 21.7206 28.916C22.1481 29.0075 22.5921 28.8665 22.8885 28.545C23.1495 29.0809 23.7815 29.0259 24.2624 28.6824C24.4823 29.0671 24.7845 28.9847 25.2517 28.6824C25.8096 28.1449 26.2988 27.5403 26.7081 26.8826H26.8455C25.9661 27.7344 25.7738 28.4489 26.1447 28.7374C26.4535 28.9775 26.8764 28.7609 27.2788 28.5547L27.2789 28.5547L27.2789 28.5547L27.2789 28.5547L27.2789 28.5547L27.2789 28.5547C27.36 28.5131 27.4403 28.472 27.5187 28.4351C27.6668 28.7593 28.0245 28.9323 28.3705 28.8473C28.8 28.7171 29.1945 28.4917 29.5247 28.1878C29.5056 28.2292 29.4806 28.2712 29.4552 28.314C29.3709 28.4562 29.2817 28.6065 29.3873 28.7649C29.5247 28.971 29.8544 28.916 29.9369 28.7649C30.0193 28.6137 30.3765 27.8443 30.5277 27.5008C30.5277 27.5008 30.7887 27.281 31.091 27.0337C31.1597 27.0337 31.2833 27.0337 31.2284 27.1024C31.1734 27.1711 30.8437 27.8031 30.6513 28.2153C30.5493 28.4511 30.6449 28.7257 30.8711 28.8473C31.1554 29.0293 31.4397 28.8159 31.7006 28.6202C31.7549 28.5794 31.8083 28.5394 31.8604 28.5038C32.2625 29.1699 32.8371 28.8589 33.2161 28.6538C33.2514 28.6346 33.2851 28.6164 33.3168 28.6C33.5817 29.1875 34.0688 28.7899 34.4136 28.5084C34.4801 28.4541 34.5413 28.4042 34.5946 28.3664C34.5855 28.5538 34.6726 28.7329 34.8256 28.8414C34.9786 28.9499 35.1764 28.9728 35.3502 28.9023C35.6919 28.7967 35.9967 28.5966 36.2296 28.3252C36.2708 28.5525 36.4121 28.7493 36.6143 28.8611C36.9267 28.9686 37.2728 28.9004 37.5211 28.6824C37.8564 28.4119 38.1324 28.0752 38.3317 27.6932C38.3317 27.5283 38.2355 27.3634 38.1394 27.4871C37.9282 27.8227 37.647 28.1086 37.315 28.3252C36.6692 28.6412 36.8341 27.7482 36.8891 27.7069C36.8993 27.6992 36.925 27.6809 36.9618 27.6547L36.9627 27.6541L36.9628 27.654L36.9631 27.6538L36.9632 27.6537C37.1237 27.5394 37.4907 27.2779 37.7134 27.0887C38.429 26.5552 38.9425 25.7947 39.1698 24.9315C39.1817 24.871 39.1677 24.8083 39.1311 24.7587C39.0945 24.709 39.0388 24.677 38.9775 24.6705C38.6856 24.6705 38.469 24.8428 38.2516 25.0158C38.2234 25.0382 38.1952 25.0606 38.1668 25.0827C37.6829 25.4666 37.2692 25.9314 36.944 26.4566C36.6378 27.1447 36.1989 27.7657 35.6525 28.284C35.4876 28.4077 35.2403 28.4351 35.1716 28.2016C35.137 28.0431 35.137 27.8791 35.1716 27.7207C35.1716 27.6467 35.4641 27.4672 35.6742 27.3382L35.6742 27.3381L35.6743 27.3381L35.6746 27.3379C35.7376 27.2992 35.7931 27.2651 35.8311 27.2398C36.6231 26.7152 37.2178 25.9417 37.5211 25.0415C37.6447 24.698 37.26 24.5743 37.0539 24.6842C35.9385 25.4127 35.0823 26.4756 34.6083 27.7207C34.4355 27.945 34.232 28.1438 34.0038 28.3115C33.8526 28.4214 33.7839 28.1191 33.8389 28.0229L34.5671 26.649C34.6358 26.4429 34.1824 26.4017 34.0587 26.5116L33.9625 26.6627C33.4679 26.0307 32.1627 26.8826 31.7642 27.9542C31.6367 28.0988 31.4885 28.2238 31.3245 28.3252C31.3245 28.3252 31.1322 28.4214 31.1872 28.3252C31.24 28.2258 31.3055 28.1172 31.374 28.0035C31.6087 27.6143 31.8799 27.1647 31.8054 26.8139C31.8054 26.6215 31.6268 26.3467 31.3108 26.4429L30.8437 26.7314C31.0772 26.1544 31.3383 25.5361 31.5993 24.9453C31.723 24.6705 31.1734 24.5606 31.0772 24.7804C30.9682 25.021 30.8561 25.2699 30.7423 25.5224C30.4402 26.1929 30.1263 26.8896 29.8269 27.5283L29.1812 27.9817C29.1812 27.6084 29.096 27.3974 29.038 27.2538C28.9893 27.1332 28.9599 27.0603 29.0163 26.9787C29.0725 26.8975 29.1259 26.8305 29.1804 26.7622C29.2456 26.6803 29.3124 26.5965 29.3873 26.4841C29.5247 26.278 29.0575 26.0719 28.9064 26.2505L27.395 28.1054C26.9142 28.5038 26.502 28.5863 26.5294 28.4214C26.5751 28.001 26.8336 27.69 27.0987 27.3711C27.2321 27.2107 27.3671 27.0482 27.4775 26.8688C27.5275 26.7913 27.5272 26.6916 27.4767 26.6143C27.4262 26.5371 27.335 26.4968 27.2439 26.5116C27.2082 26.5116 27.1552 26.5188 27.1008 26.5263C26.9875 26.5417 26.8681 26.558 26.8867 26.5116C27.1265 26.2417 27.2003 25.8625 27.079 25.5223C26.9797 25.3642 26.7999 25.2755 26.614 25.2929C26.4281 25.3104 26.2679 25.431 26.1997 25.6048C26.068 25.9659 26.1138 26.3679 26.3234 26.6902C26.2851 26.7459 26.2462 26.8028 26.2068 26.8603L26.2068 26.8605C25.7804 27.4841 25.3016 28.1845 24.9494 28.2977C24.9494 28.2977 24.8532 28.229 24.867 28.2016L25.6364 26.8276V26.6627C25.5593 26.59 25.453 26.5568 25.3483 26.573C25.2436 26.5891 25.1521 26.6526 25.1005 26.7452C24.9223 26.5727 24.665 26.5097 24.4273 26.5803C23.7023 26.7818 23.1221 27.326 22.8747 28.0367C22.7089 28.2486 22.4912 28.4142 22.2427 28.5176C22.2067 28.5176 22.1718 28.5204 22.1386 28.523C22.0071 28.5335 21.9019 28.542 21.858 28.3664C21.597 27.281 22.6824 25.4674 23.809 23.695C23.8445 23.6637 23.8648 23.6186 23.8648 23.5713C23.8648 23.524 23.8445 23.479 23.809 23.4477H23.5892C22.5781 24.3968 21.7 25.4783 20.9787 26.6627C20.9838 26.0988 21.0717 25.5386 21.2397 25.0002C21.3688 24.5702 21.5342 24.1519 21.7343 23.7499C21.8717 23.4889 21.4733 23.2553 21.3222 23.4889C20.7485 24.3494 20.4028 25.1386 20.0693 25.9002C19.7477 26.6343 19.4375 27.3426 18.9452 28.0642C18.7475 28.3787 18.3958 28.5624 18.0247 28.545C17.2965 28.545 17.4613 27.336 18.1758 27.6108C18.3269 27.6795 18.4231 27.3634 18.2582 27.2947C16.7332 26.6215 16.4996 28.5176 17.53 28.8611ZM37.8784 26.0169C38.0847 25.7617 38.3199 25.5312 38.5791 25.33C38.4568 25.6338 38.2952 25.9202 38.0982 26.1818C37.8469 26.4843 37.561 26.7564 37.2464 26.9925C37.4174 26.6433 37.6296 26.3158 37.8784 26.0169ZM36.9853 25.2889C36.7072 25.5029 36.4538 25.7471 36.2296 26.0171C35.9932 26.3229 35.7774 26.6442 35.5839 26.9788C35.8897 26.7844 36.1671 26.5486 36.4082 26.2781C36.6457 25.9768 36.8399 25.6439 36.9853 25.2889ZM32.6299 27.4734C32.7994 27.194 33.0549 26.977 33.3581 26.8551C33.4817 26.8551 33.6466 26.8551 33.6466 26.9787C33.5896 27.566 33.2375 28.0839 32.7123 28.3527C32.6024 28.3527 32.41 28.3527 32.3688 28.2703C32.3423 27.98 32.4368 27.6917 32.6299 27.4734ZM28.5767 28.3115C28.6512 28.0326 28.627 27.7365 28.508 27.4734L28.4668 27.4872C28.2921 27.6852 28.127 27.8915 27.9721 28.1054C27.9034 28.2016 28.0408 28.5314 28.2332 28.5314C28.3887 28.5654 28.5424 28.467 28.5767 28.3115ZM26.557 25.7559C26.557 25.7559 26.557 25.6185 26.6394 25.6323C26.7219 25.646 26.7768 26.0032 26.6394 26.1956C26.5524 26.0667 26.5226 25.9076 26.557 25.7559ZM24.4411 26.8688C24.3053 26.9372 24.1803 27.0251 24.0701 27.1298V27.1161C23.7485 27.3697 23.529 27.7306 23.4519 28.1328C23.4106 28.2702 23.5343 28.4076 23.6167 28.4076C24.2429 28.2237 24.6978 27.6822 24.7708 27.0337C24.7983 26.8688 24.5922 26.8688 24.4411 26.8688Z" fill="black"/>
</svg>
