<svg width="558" height="146" viewBox="0 0 558 146" fill="none" xmlns="http://www.w3.org/2000/svg">
<path fill-rule="evenodd" clip-rule="evenodd" d="M172.865 132.565C189.057 129.449 198.913 113.522 201.377 97.9414C202.081 94.1327 196.801 92.0553 193.281 93.7865C189.761 95.5177 188.353 96.5564 184.129 100.019C176.033 106.597 170.753 115.253 168.641 125.641C167.937 129.103 170.753 132.912 172.865 132.565ZM286.562 135.335C290.786 136.374 294.306 132.912 295.01 129.796C297.122 122.871 296.066 115.6 293.25 109.367C292.194 110.406 283.042 120.793 280.226 124.948C278.466 127.026 281.634 133.95 286.562 135.335ZM390.051 129.796C391.107 133.258 396.035 132.912 398.499 131.527C411.875 125.641 421.027 110.752 421.731 96.5564C421.731 93.7865 417.859 92.0553 414.691 93.4403C406.947 96.2102 401.667 101.75 396.739 108.675C392.163 115.253 388.291 122.524 390.051 129.796ZM511.139 95.8639C511.139 96.2102 524.516 86.1692 532.612 76.1282C540.708 66.0872 544.228 55.3538 544.228 55.3538C544.228 55.3538 535.076 61.9324 526.98 71.9733C517.124 84.0918 511.139 95.8639 511.139 95.8639ZM247.49 78.2057L247.842 77.8594C251.362 73.0121 252.77 66.4335 247.842 64.0098C247.138 63.6636 246.082 65.741 246.082 66.7797C245.026 70.9346 245.026 74.7433 247.49 78.2057ZM240.45 89.2854C235.874 80.9756 233.762 71.6271 237.634 62.9711C241.154 54.3151 254.53 51.1989 259.458 60.8936C264.738 71.6271 256.994 80.9756 254.882 85.1305C254.178 86.5154 261.218 84.438 263.682 84.438C268.962 84.0918 272.13 89.2854 269.666 93.4403C261.57 106.597 247.842 115.6 246.082 131.527C245.73 135.335 255.586 133.258 267.554 123.563C267.906 123.217 289.026 97.9414 305.218 78.2057C308.738 73.7045 321.41 78.2057 317.186 84.0918C313.666 89.2854 310.146 93.094 308.034 96.2102C304.866 100.711 312.962 103.827 312.258 120.793C318.242 116.292 328.098 110.06 328.45 109.367C338.658 88.5929 349.218 64.356 359.427 42.8891C361.891 37.6955 375.619 40.1192 372.451 47.044C366.115 61.2399 359.426 76.4745 353.442 90.3241C353.09 91.0166 364.355 84.0918 365.059 83.3993C372.803 80.9756 375.971 87.5542 377.027 92.4015C379.843 103.481 367.523 118.716 361.891 129.449C360.483 132.219 363.651 130.834 365.059 129.796C369.283 127.372 375.971 121.14 375.971 120.447C385.827 94.1328 418.211 73.7045 430.883 88.9391C431.939 87.5542 432.995 85.4767 433.347 85.4767C436.163 82.7068 447.427 83.7455 445.667 88.9391C445.667 89.2854 434.051 111.791 427.715 123.563C426.307 126.333 427.715 133.258 431.587 130.488C437.571 126.333 446.371 117.331 446.723 116.292C453.763 96.9027 476.643 57.7775 507.267 41.8504C512.547 39.0805 522.052 42.5429 518.884 50.5064C508.323 78.2057 495.651 90.3241 476.643 104.174C476.291 104.52 475.939 104.52 475.939 104.866C472.067 107.636 460.451 114.215 459.747 116.638C459.747 116.985 457.283 124.602 458.691 128.411C460.451 134.297 466.435 133.604 470.659 130.488C486.499 119.062 492.483 101.75 502.691 85.823C510.788 73.0121 519.94 61.9324 532.964 51.5451C538.948 46.6978 544.932 40.4654 553.028 41.5041C556.548 41.8504 558.308 45.659 557.956 47.7365C551.972 71.9733 537.188 88.2467 521.7 100.365C514.66 105.905 507.619 111.099 501.283 115.253C499.523 116.292 495.651 138.105 511.843 130.488C519.588 127.026 527.684 115.6 532.26 110.06C534.724 107.29 538.596 111.099 536.836 114.907C531.908 124.602 525.572 132.565 516.772 139.144C510.436 144.338 502.339 146.761 494.595 143.645C488.611 141.221 486.499 135.335 485.091 130.488C479.459 137.067 471.363 142.606 462.915 144.684C449.891 148.146 444.611 139.144 444.259 131.527C436.163 138.105 420.323 154.379 412.227 137.067C403.075 141.914 387.235 152.647 376.323 134.989C368.931 139.837 360.13 148.493 351.682 143.299C346.05 139.837 343.586 133.604 346.402 128.064C350.978 118.023 360.131 101.75 360.835 100.711C361.891 98.6339 359.075 97.5951 357.315 98.9801C349.922 104.866 343.938 109.714 343.586 110.406C339.714 118.716 332.674 133.604 329.154 141.221C327.042 146.069 317.89 145.723 315.426 142.26C311.906 137.413 316.834 132.565 318.946 128.064C308.738 134.989 301.346 142.26 290.434 144.338C281.634 146.069 272.482 142.26 268.962 134.297C258.754 139.49 247.138 149.531 236.226 141.568C226.722 134.643 231.65 117.331 253.474 96.5564C253.826 96.2102 253.826 95.8639 253.474 95.5177L249.954 94.1327C241.858 104.866 224.61 130.834 214.05 138.105C202.433 145.723 194.689 147.8 189.409 138.105C177.793 146.415 161.953 147.8 155.617 134.643C146.113 142.26 139.777 147.454 125.697 144.684C119.009 143.299 115.489 137.067 114.785 130.834C113.729 120.793 115.489 110.752 116.897 100.711C108.097 115.253 100.001 131.527 87.6807 143.991C85.5687 146.069 78.1767 144.684 78.8807 140.529C81.6967 124.256 90.8488 101.404 89.7928 86.1692C77.4727 113.176 58.8166 155.071 21.8563 142.953C-4.19186 134.297 2.14418 88.2467 38.4004 102.443C42.6244 104.174 40.1604 111.791 36.2884 110.406C18.6883 103.481 14.8163 132.219 32.7684 133.258C44.0325 133.95 51.7765 127.026 55.6485 121.14C79.5847 85.4767 86.6247 50.8526 114.785 9.65C118.657 3.76391 128.513 9.65 125.345 15.8823C120.769 24.5384 116.897 34.2331 113.025 46.3515C108.801 60.2011 106.337 73.0121 106.689 86.8617C125.345 58.8162 144.001 31.4632 170.753 8.61128C171.809 7.57255 174.273 7.91879 176.033 8.61128C178.849 9.65 179.201 12.7662 177.793 14.8436C149.633 58.1237 122.881 102.443 129.217 128.757C130.625 134.297 134.497 133.258 139.073 132.565C143.649 131.873 153.857 122.871 154.913 120.793C161.601 103.481 174.977 89.6316 193.281 85.1305C199.265 83.3993 205.602 85.1305 210.178 89.2854C212.642 84.0918 220.034 83.3993 223.554 87.2079C224.258 87.9004 224.258 90.3241 223.554 91.3628C216.866 103.827 211.234 114.561 204.546 125.987C204.193 127.026 205.249 128.757 206.658 128.411C216.162 125.294 229.186 105.212 240.45 89.2854ZM469.955 96.5564C470.307 96.9027 482.275 88.5929 490.371 79.2444C496.707 71.9733 505.155 56.0463 504.803 55.3538C504.099 55.0075 494.595 63.6636 486.147 73.0121C479.811 80.6294 469.955 96.5564 469.955 96.5564Z" fill="#5E0339"/>
<path fill-rule="evenodd" clip-rule="evenodd" d="M166.887 125.763C183.079 122.647 192.935 106.72 195.399 91.1393C196.103 87.3307 190.823 85.2532 187.303 86.9844C183.783 88.7156 182.375 89.7544 178.151 93.2168C170.055 99.7953 164.775 108.451 162.663 118.839C161.959 122.301 164.775 126.11 166.887 125.763ZM280.584 128.533C284.808 129.572 288.328 126.11 289.032 122.993C291.144 116.069 290.088 108.798 287.272 102.565C286.216 103.604 277.064 113.991 274.248 118.146C272.488 120.224 275.656 127.148 280.584 128.533ZM384.072 122.993C385.128 126.456 390.056 126.11 392.52 124.725C405.896 118.839 415.048 103.95 415.753 89.7544C415.753 86.9844 411.88 85.2532 408.712 86.6382C400.968 89.4081 395.688 94.948 390.76 101.873C386.184 108.451 382.312 115.722 384.072 122.993ZM505.161 89.0619C505.161 89.4081 518.537 79.3671 526.633 69.3262C534.729 59.2852 538.249 48.5517 538.249 48.5517C538.249 48.5517 529.097 55.1303 521.001 65.1713C511.145 77.2897 505.161 89.0619 505.161 89.0619ZM241.511 71.4036L241.863 71.0574C245.383 66.21 246.791 59.6314 241.863 57.2077C241.159 56.8615 240.103 58.9389 240.103 59.9777C239.047 64.1326 239.047 67.9412 241.511 71.4036ZM234.471 82.4833C229.895 74.1735 227.783 64.825 231.655 56.169C235.175 47.513 248.551 44.3968 253.479 54.0916C258.759 64.825 251.015 74.1735 248.903 78.3284C248.199 79.7134 255.239 77.6359 257.703 77.6359C262.984 77.2897 266.152 82.4833 263.688 86.6382C255.591 99.7953 241.863 108.798 240.103 124.725C239.751 128.533 249.607 126.456 261.576 116.761C261.928 116.415 283.048 91.1393 299.24 71.4036C302.76 66.9025 315.432 71.4036 311.208 77.2897C307.688 82.4833 304.168 86.292 302.056 89.4081C298.888 93.9093 306.984 97.0254 306.28 113.991C312.264 109.49 322.12 103.258 322.472 102.565C332.68 81.7908 343.24 57.554 353.448 36.087C355.912 30.8934 369.64 33.3171 366.472 40.2419C360.136 54.4378 353.448 69.6724 347.464 83.522C347.112 84.2145 358.376 77.2897 359.08 76.5972C366.824 74.1735 369.992 80.7521 371.048 85.5995C373.864 96.6792 361.544 111.914 355.912 122.647C354.504 125.417 357.672 124.032 359.08 122.993C363.304 120.57 369.992 114.337 369.992 113.645C379.848 87.3307 412.232 66.9025 424.905 82.1371C425.961 80.7521 427.017 78.6747 427.369 78.6747C430.185 75.9047 441.449 76.9435 439.689 82.1371C439.689 82.4833 428.073 104.989 421.737 116.761C420.329 119.531 421.737 126.456 425.609 123.686C431.593 119.531 440.393 110.529 440.745 109.49C447.785 90.1006 470.665 50.9754 501.289 35.0483C506.569 32.2784 516.073 35.7408 512.905 43.7043C502.345 71.4036 489.673 83.522 470.665 97.3717C470.313 97.7179 469.961 97.7179 469.961 98.0641C466.089 100.834 454.473 107.413 453.769 109.836C453.769 110.183 451.305 117.8 452.713 121.609C454.473 127.495 460.457 126.802 464.681 123.686C480.521 112.26 486.505 94.948 496.713 79.0209C504.809 66.21 513.961 55.1303 526.985 44.7431C532.969 39.8957 538.953 33.6634 547.049 34.7021C550.569 35.0483 552.329 38.857 551.977 40.9344C545.993 65.1713 531.209 81.4446 515.721 93.563C508.681 99.1029 501.641 104.296 495.305 108.451C493.545 109.49 489.673 131.303 505.865 123.686C513.609 120.224 521.705 108.798 526.281 103.258C528.745 100.488 532.617 104.296 530.857 108.105C525.929 117.8 519.593 125.763 510.793 132.342C504.457 137.536 496.361 139.959 488.617 136.843C482.633 134.419 480.521 128.533 479.113 123.686C473.481 130.265 465.385 135.804 456.937 137.882C443.913 141.344 438.633 132.342 438.281 124.725C430.185 131.303 414.344 147.577 406.248 130.265C397.096 135.112 381.256 145.845 370.344 128.187C362.952 133.034 354.152 141.69 345.704 136.497C340.072 133.034 337.608 126.802 340.424 121.262C345 111.221 354.152 94.948 354.856 93.9093C355.912 91.8318 353.096 90.7931 351.336 92.1781C343.944 98.0641 337.96 102.912 337.608 103.604C333.736 111.914 326.696 126.802 323.176 134.419C321.064 139.267 311.912 138.921 309.448 135.458C305.928 130.611 310.856 125.763 312.968 121.262C302.76 128.187 295.368 135.458 284.456 137.536C275.656 139.267 266.504 135.458 262.983 127.495C252.775 132.688 241.159 142.729 230.247 134.766C220.743 127.841 225.671 110.529 247.495 89.7544C247.847 89.4081 247.847 89.0619 247.495 88.7156L243.975 87.3307C235.879 98.0641 218.631 124.032 208.071 131.303C196.455 138.921 188.711 140.998 183.431 131.303C171.815 139.613 155.975 140.998 149.639 127.841C140.135 135.458 133.799 140.652 119.719 137.882C113.031 136.497 109.511 130.265 108.807 124.032C107.751 113.991 109.511 103.95 110.919 93.9093C102.118 108.451 94.0224 124.725 81.7023 137.189C79.5903 139.267 72.1983 137.882 72.9023 133.727C75.7183 117.454 84.8704 94.6017 83.8144 79.3671C71.4943 106.374 52.8382 148.269 15.8779 136.151C-10.1703 127.495 -3.83421 81.4446 32.422 95.6405C36.6461 97.3717 34.182 104.989 30.31 103.604C12.7099 96.6792 8.83787 125.417 26.79 126.456C38.0541 127.148 45.7981 120.224 49.6701 114.337C73.6063 78.6747 80.6463 44.0506 108.807 2.84794C112.679 -3.03816 122.535 2.84794 119.367 9.08027C114.791 17.7363 110.919 27.431 107.047 39.5495C102.822 53.3991 100.358 66.21 100.71 80.0596C119.367 52.0141 138.023 24.6611 164.775 1.80921C165.831 0.770491 168.295 1.11673 170.055 1.80921C172.871 2.84794 173.223 5.9641 171.815 8.04155C143.655 51.3216 116.903 95.6405 123.239 121.955C124.647 127.495 128.519 126.456 133.095 125.763C137.671 125.071 147.879 116.069 148.935 113.991C155.623 96.6792 168.999 82.8296 187.303 78.3284C193.287 76.5972 199.623 78.3284 204.199 82.4833C206.663 77.2897 214.055 76.5972 217.575 80.4059C218.279 81.0984 218.279 83.522 217.575 84.5608C210.887 97.0254 205.255 107.759 198.567 119.185C198.215 120.224 199.271 121.955 200.679 121.609C210.183 118.492 223.207 98.4104 234.471 82.4833ZM463.977 89.7544C464.329 90.1006 476.297 81.7908 484.393 72.4423C490.729 65.1713 499.177 49.2442 498.825 48.5517C498.121 48.2055 488.617 56.8615 480.169 66.21C473.833 73.8273 463.977 89.7544 463.977 89.7544Z" fill="#FFBD38"/>
</svg>
